<svg width="117" height="35" viewBox="0 0 117 35" fill="none" xmlns="http://www.w3.org/2000/svg">
<path d="M9.60449 34.1523C5.50293 33.0016 3.45215 30.3527 3.45215 26.2056V22.8218C3.45215 20.5203 2.5293 19.3696 0.683594 19.3696V15.4902C2.5293 15.4902 3.45215 14.3338 3.45215 12.021V8.43213C3.48633 6.38135 4.01611 4.72363 5.0415 3.45898C6.07829 2.19434 7.59928 1.27718 9.60449 0.70752L10.6812 3.71533C9.24561 4.26221 8.49935 5.7946 8.44238 8.3125V12.021C8.44238 14.5731 7.38851 16.3732 5.28076 17.4214C7.38851 18.4696 8.44238 20.2754 8.44238 22.8389V26.5303C8.49935 29.0482 9.24561 30.5806 10.6812 31.1274L9.60449 34.1523ZM19.2603 19.5576V28H13.2617V3.11719H23.1909C25.0936 3.11719 26.7741 3.47038 28.2324 4.17676C29.7021 4.87174 30.8358 5.86865 31.6333 7.16748C32.4422 8.45492 32.8467 9.91895 32.8467 11.5596C32.8467 13.9863 31.9751 15.9289 30.2319 17.3872C28.5002 18.8341 26.119 19.5576 23.0884 19.5576H19.2603ZM19.2603 14.9263H23.1909C24.353 14.9263 25.236 14.6357 25.8398 14.0547C26.4551 13.4736 26.7627 12.6533 26.7627 11.5938C26.7627 10.4316 26.4494 9.50309 25.8228 8.80811C25.1961 8.11312 24.3416 7.75993 23.2593 7.74854H19.2603V14.9263ZM37.0679 28V13.5078H34.3848V9.50879H37.0679V8.03906C37.0679 5.93132 37.6888 4.29639 38.9307 3.13428C40.1725 1.97217 41.9157 1.39111 44.1602 1.39111C44.9805 1.39111 45.8805 1.51074 46.8604 1.75L46.8774 5.98828C46.5243 5.88574 46.0514 5.83447 45.459 5.83447C43.7158 5.83447 42.8442 6.58643 42.8442 8.09033V9.50879H46.4502V13.5078H42.8442V28H37.0679ZM47.749 18.5835C47.749 16.7378 48.1079 15.0972 48.8257 13.6616C49.5435 12.2147 50.5745 11.1038 51.9189 10.3291C53.2633 9.55436 54.8413 9.16699 56.6528 9.16699C59.4214 9.16699 61.6032 10.0272 63.1982 11.7476C64.7933 13.4565 65.5908 15.7865 65.5908 18.7373V18.9424C65.5908 21.8249 64.7876 24.1149 63.1812 25.8125C61.5861 27.4987 59.4214 28.3418 56.687 28.3418C54.0552 28.3418 51.9417 27.5557 50.3467 25.9834C48.7516 24.3997 47.8914 22.2578 47.7661 19.5576L47.749 18.5835ZM53.5083 18.9424C53.5083 20.6514 53.776 21.9046 54.3115 22.7021C54.847 23.4997 55.6388 23.8984 56.687 23.8984C58.7378 23.8984 59.786 22.3205 59.8315 19.1646V18.5835C59.8315 15.2681 58.772 13.6104 56.6528 13.6104C54.7274 13.6104 53.6849 15.0402 53.5254 17.8999L53.5083 18.9424ZM74.2041 28H68.4277V1.75H74.2041V28ZM83.8428 28H78.0664V9.50879H83.8428V28ZM77.7246 4.74072C77.7246 3.92041 78.0208 3.24821 78.6133 2.72412C79.2057 2.20003 79.9748 1.93799 80.9204 1.93799C81.866 1.93799 82.6351 2.20003 83.2275 2.72412C83.82 3.24821 84.1162 3.92041 84.1162 4.74072C84.1162 5.56104 83.82 6.23324 83.2275 6.75732C82.6351 7.28141 81.866 7.54346 80.9204 7.54346C79.9748 7.54346 79.2057 7.28141 78.6133 6.75732C78.0208 6.23324 77.7246 5.56104 77.7246 4.74072ZM86.6797 18.5835C86.6797 16.7378 87.0386 15.0972 87.7563 13.6616C88.4741 12.2147 89.5052 11.1038 90.8496 10.3291C92.194 9.55436 93.772 9.16699 95.5835 9.16699C98.3521 9.16699 100.534 10.0272 102.129 11.7476C103.724 13.4565 104.521 15.7865 104.521 18.7373V18.9424C104.521 21.8249 103.718 24.1149 102.112 25.8125C100.517 27.4987 98.3521 28.3418 95.6177 28.3418C92.9858 28.3418 90.8724 27.5557 89.2773 25.9834C87.6823 24.3997 86.8221 22.2578 86.6968 19.5576L86.6797 18.5835ZM92.439 18.9424C92.439 20.6514 92.7067 21.9046 93.2422 22.7021C93.7777 23.4997 94.5695 23.8984 95.6177 23.8984C97.6685 23.8984 98.7166 22.3205 98.7622 19.1646V18.5835C98.7622 15.2681 97.7026 13.6104 95.5835 13.6104C93.658 13.6104 92.6156 15.0402 92.4561 17.8999L92.439 18.9424ZM106.145 31.1274C107.581 30.5806 108.327 29.0482 108.384 26.5303V22.8218C108.384 20.2583 109.443 18.4582 111.562 17.4214C109.443 16.3846 108.384 14.5845 108.384 12.021V8.3125C108.327 5.7946 107.581 4.26221 106.145 3.71533L107.222 0.70752C109.261 1.27718 110.793 2.21143 111.819 3.51025C112.844 4.79769 113.363 6.48958 113.374 8.58594V12.021C113.374 14.3338 114.297 15.4902 116.143 15.4902V19.3696C114.297 19.3696 113.374 20.5146 113.374 22.8047V26.4448C113.294 30.4552 111.243 33.0244 107.222 34.1523L106.145 31.1274Z" fill="white"/>
</svg>
