<svg width="117" height="34" viewBox="0 0 117 34" fill="none" xmlns="http://www.w3.org/2000/svg">
<path d="M28.5093 17.6631C28.5093 20.7832 27.9307 23.5444 26.7734 25.9468C25.6162 28.3491 23.9683 30.2021 21.8296 31.5059C19.7056 32.7949 17.2812 33.4395 14.5566 33.4395C11.832 33.4395 9.41504 32.8169 7.30566 31.5718C5.19629 30.312 3.54834 28.5176 2.36182 26.1885C1.18994 23.8594 0.574707 21.186 0.516113 18.1685V16.3667C0.516113 13.2319 1.0874 10.4707 2.22998 8.08301C3.38721 5.68066 5.03516 3.82764 7.17383 2.52393C9.32715 1.22021 11.7734 0.568359 14.5127 0.568359C17.2227 0.568359 19.6396 1.21289 21.7637 2.50195C23.8877 3.79102 25.5356 5.62939 26.7075 8.01709C27.894 10.3901 28.4946 13.1147 28.5093 16.1909V17.6631ZM20.665 16.3228C20.665 13.144 20.1304 10.7344 19.061 9.09375C18.0063 7.43848 16.4902 6.61084 14.5127 6.61084C10.6455 6.61084 8.60205 9.51123 8.38232 15.312L8.36035 17.6631C8.36035 20.7979 8.88037 23.2075 9.92041 24.8921C10.9604 26.5767 12.5059 27.4189 14.5566 27.4189C16.5049 27.4189 18.0063 26.5913 19.061 24.936C20.1157 23.2808 20.6504 20.9004 20.665 17.7949V16.3228ZM59.2271 33H51.5586V19.6406H40.1987V33H32.4863V1.00781H40.1987V13.708H51.5586V1.00781H59.2271V33ZM76.8711 1.00781H84.5615V22.9585C84.5615 24.9946 84.0854 26.811 83.1333 28.4077C82.1958 30.0044 80.8774 31.2422 79.1782 32.1211C77.4937 33 75.6113 33.4395 73.5312 33.4395C70.0449 33.4395 67.335 32.5605 65.4014 30.8027C63.4678 29.0449 62.501 26.5547 62.501 23.332H70.2354C70.2354 24.7969 70.4844 25.8589 70.9824 26.5181C71.4951 27.1772 72.3447 27.5068 73.5312 27.5068C74.6006 27.5068 75.4209 27.1113 75.9922 26.3203C76.5781 25.5146 76.8711 24.394 76.8711 22.9585V1.00781ZM100.316 21.0908L97.1519 24.5625V33H89.4395V1.00781H97.1519V15.1143L99.8325 11.0493L106.732 1.00781H116.268L105.458 15.1582L116.268 33H107.127L100.316 21.0908Z" fill="white"/>
</svg>
