<svg width="116" height="25" viewBox="0 0 116 25" fill="none" xmlns="http://www.w3.org/2000/svg">
<path d="M20.5283 12.5522C20.5283 14.8403 20.104 16.8652 19.2554 18.627C18.4067 20.3887 17.1982 21.7476 15.6299 22.7036C14.0723 23.6489 12.2944 24.1216 10.2964 24.1216C8.29834 24.1216 6.52588 23.665 4.979 22.752C3.43213 21.8281 2.22363 20.5122 1.35352 18.8042C0.494141 17.0962 0.0429688 15.1357 0 12.9229V11.6016C0 9.30273 0.418945 7.27783 1.25684 5.52686C2.10547 3.76514 3.31396 2.40625 4.88232 1.4502C6.46143 0.494141 8.25537 0.0161133 10.2642 0.0161133C12.2515 0.0161133 14.0239 0.48877 15.5815 1.43408C17.1392 2.37939 18.3477 3.72754 19.207 5.47852C20.0771 7.21875 20.5176 9.2168 20.5283 11.4727V12.5522ZM14.7759 11.5693C14.7759 9.23828 14.3838 7.47119 13.5996 6.26807C12.8262 5.0542 11.7144 4.44727 10.2642 4.44727C7.42822 4.44727 5.92969 6.57422 5.76855 10.8281L5.75244 12.5522C5.75244 14.8511 6.13379 16.6182 6.89648 17.8535C7.65918 19.0889 8.79248 19.7065 10.2964 19.7065C11.7251 19.7065 12.8262 19.0996 13.5996 17.8857C14.373 16.6719 14.7651 14.9263 14.7759 12.6489V11.5693Z" fill="white"/>
<path d="M43.0547 23.7993H37.4312V14.0024H29.1006V23.7993H23.4448V0.338379H29.1006V9.65186H37.4312V0.338379H43.0547V23.7993Z" fill="white"/>
<path d="M54.624 15.0659L52.3037 17.6118V23.7993H46.6479V0.338379H52.3037V10.6831L54.2695 7.70215L59.3291 0.338379H66.3223L58.3945 10.7153L66.3223 23.7993H59.6191L54.624 15.0659Z" fill="white"/>
<path d="M75.4746 15.791H65.7905V11.5854H75.4746V15.791Z" fill="white"/>
<path d="M96.0029 23.7993H79.6318V20.2544L87.1729 12.3267C89.0312 10.2104 89.9604 8.5293 89.9604 7.2832C89.9604 6.27344 89.7402 5.50537 89.2998 4.979C88.8594 4.45264 88.2202 4.18945 87.3823 4.18945C86.5552 4.18945 85.8838 4.54395 85.3682 5.25293C84.8525 5.95117 84.5947 6.82666 84.5947 7.87939H79.1484C79.1484 6.43994 79.5083 5.11328 80.228 3.89941C80.9478 2.6748 81.9468 1.71875 83.2251 1.03125C84.5034 0.34375 85.9321 0 87.5112 0C90.0464 0 91.9961 0.585449 93.3604 1.75635C94.7354 2.92725 95.4229 4.6084 95.4229 6.7998C95.4229 7.72363 95.251 8.62598 94.9072 9.50684C94.5635 10.377 94.0264 11.2954 93.2959 12.2622C92.5762 13.2183 91.4106 14.502 89.7993 16.1133L86.77 19.6099H96.0029V23.7993Z" fill="white"/>
<path d="M115.113 23.7993H98.7422V20.2544L106.283 12.3267C108.142 10.2104 109.071 8.5293 109.071 7.2832C109.071 6.27344 108.851 5.50537 108.41 4.979C107.97 4.45264 107.331 4.18945 106.493 4.18945C105.666 4.18945 104.994 4.54395 104.479 5.25293C103.963 5.95117 103.705 6.82666 103.705 7.87939H98.2588C98.2588 6.43994 98.6187 5.11328 99.3384 3.89941C100.058 2.6748 101.057 1.71875 102.335 1.03125C103.614 0.34375 105.042 0 106.622 0C109.157 0 111.106 0.585449 112.471 1.75635C113.846 2.92725 114.533 4.6084 114.533 6.7998C114.533 7.72363 114.361 8.62598 114.018 9.50684C113.674 10.377 113.137 11.2954 112.406 12.2622C111.687 13.2183 110.521 14.502 108.91 16.1133L105.88 19.6099H115.113V23.7993Z" fill="white"/>
</svg>
