<svg width="109" height="30" viewBox="0 0 109 30" fill="none" xmlns="http://www.w3.org/2000/svg">
<path d="M24.5747 15.708C24.5747 18.4121 24.0732 20.8052 23.0703 22.8872C22.0674 24.9692 20.6392 26.5752 18.7856 27.7051C16.9448 28.8223 14.8438 29.3809 12.4824 29.3809C10.1211 29.3809 8.02637 28.8413 6.19824 27.7622C4.37012 26.6704 2.94189 25.1152 1.91357 23.0967C0.897949 21.0781 0.364746 18.7612 0.313965 16.146V14.5845C0.313965 11.8677 0.809082 9.47461 1.79932 7.40527C2.80225 5.32324 4.23047 3.71729 6.08398 2.5874C7.9502 1.45752 10.0703 0.892578 12.4443 0.892578C14.793 0.892578 16.8877 1.45117 18.7285 2.56836C20.5693 3.68555 21.9976 5.27881 23.0132 7.34814C24.0415 9.40479 24.562 11.7661 24.5747 14.4321V15.708ZM17.7764 14.5464C17.7764 11.7915 17.313 9.70312 16.3862 8.28125C15.4722 6.84668 14.1582 6.12939 12.4443 6.12939C9.09277 6.12939 7.32178 8.64307 7.13135 13.6704L7.1123 15.708C7.1123 18.4248 7.56299 20.5132 8.46436 21.9731C9.36572 23.4331 10.7051 24.1631 12.4824 24.1631C14.1709 24.1631 15.4722 23.4458 16.3862 22.0112C17.3003 20.5767 17.7637 18.5137 17.7764 15.8223V14.5464ZM36.8003 1.27344L42.9893 20.564L49.1592 1.27344H57.957V29H51.2539V22.5254L51.9014 9.27148L45.1982 29H40.7803L34.0581 9.25244L34.7056 22.5254V29H28.0215V1.27344H36.8003ZM68.9067 19.5928V29H62.2227V1.27344H73.2866C75.4067 1.27344 77.2793 1.66699 78.9043 2.4541C80.542 3.22852 81.8052 4.33936 82.6938 5.78662C83.5952 7.22119 84.0459 8.85254 84.0459 10.6807C84.0459 13.3848 83.0747 15.5493 81.1323 17.1743C79.2026 18.7866 76.5493 19.5928 73.1724 19.5928H68.9067ZM68.9067 14.4321H73.2866C74.5815 14.4321 75.5654 14.1084 76.2383 13.4609C76.9238 12.8135 77.2666 11.8994 77.2666 10.7188C77.2666 9.42383 76.9175 8.38916 76.2192 7.61475C75.521 6.84033 74.5688 6.44678 73.3628 6.43408H68.9067V14.4321ZM99.9849 23.8203H90.8252L89.2256 29H82.0845L92.2534 1.27344H98.5376L108.783 29H101.604L99.9849 23.8203ZM92.4248 18.6597H98.3853L95.3955 9.04297L92.4248 18.6597Z" fill="white"/>
</svg>
